<svg width="143" height="70" viewBox="0 0 143 70" fill="none" xmlns="http://www.w3.org/2000/svg">
<path d="M22.84 22.52C20.8133 23.1867 19.24 24.2933 18.12 25.84C17.0267 27.36 16.48 29.2533 16.48 31.52C16.48 32.5333 16.5733 33.2267 16.76 33.6C16.9467 33.9733 17.04 34.2 17.04 34.28C14.1867 34.28 12.76 33.0667 12.76 30.64C12.76 28.9867 13.3867 27.3333 14.64 25.68C15.92 24 17.5467 22.64 19.52 21.6C21.52 20.5333 23.5067 20 25.48 20C26.4667 20 27.48 20.1867 28.52 20.56L27.6 41.64L36.4 20.56H42.16L37.96 50H32.2L34.76 32.04L27.24 50H21.76L22.56 31.96L15.88 50H12.68L22.84 22.52ZM47.7244 60C46.471 60 45.3644 59.5867 44.4044 58.76C43.471 57.96 43.0044 56.9333 43.0044 55.68C43.0044 54.5067 43.2977 53.5467 43.8844 52.8C44.471 52.0533 45.231 51.4667 46.1644 51.04C47.0977 50.6133 48.351 50.16 49.9244 49.68L50.3244 47.92C48.9644 49.4667 47.3377 50.24 45.4444 50.24C44.1644 50.24 43.1244 49.84 42.3244 49.04C41.551 48.24 41.1644 47.04 41.1644 45.44C41.1644 44.7733 41.271 43.9067 41.4844 42.84L44.2044 30H49.9644L47.0844 43.6C47.0044 43.92 46.9644 44.2533 46.9644 44.6C46.9644 45.7733 47.3644 46.36 48.1644 46.36C48.911 46.36 49.551 46.0533 50.0844 45.44C50.6177 44.8 51.0444 43.9333 51.3644 42.84L54.0844 30H59.8844L55.0044 53.2C54.471 55.76 53.5244 57.5333 52.1644 58.52C50.831 59.5067 49.351 60 47.7244 60ZM46.8044 56.44C47.2844 56.44 47.7377 56.1867 48.1644 55.68C48.591 55.2 48.9244 54.4133 49.1644 53.32L49.6444 50.96C48.231 51.44 47.1377 52 46.3644 52.64C45.591 53.28 45.2044 54.1067 45.2044 55.12C45.2044 55.44 45.3644 55.7333 45.6844 56C46.0044 56.2933 46.3777 56.44 46.8044 56.44ZM82.2428 60C81.0428 60 79.8561 59.6533 78.6828 58.96C77.5361 58.2933 76.0695 57.2533 74.2828 55.84C72.9495 54.7733 71.8028 53.9067 70.8428 53.24C69.9095 52.6 68.8828 52.0533 67.7628 51.6C66.6695 51.1467 65.5495 50.92 64.4028 50.92C64.0028 50.92 63.6961 50.9333 63.4828 50.96L69.4428 23.24C67.6561 23.96 66.2695 25.0667 65.2828 26.56C64.3228 28.0267 63.8428 29.8267 63.8428 31.96C63.8428 32.9467 63.9361 33.64 64.1228 34.04C64.3095 34.4133 64.4028 34.6267 64.4028 34.68C62.9628 34.68 61.8828 34.3867 61.1628 33.8C60.4695 33.1867 60.1228 32.1867 60.1228 30.8C60.1228 29.0933 60.8161 27.44 62.2028 25.84C63.6161 24.2133 65.4161 22.9067 67.6028 21.92C69.7895 20.9067 71.9761 20.4 74.1628 20.4C74.5361 20.4 75.0695 20.4267 75.7628 20.48L69.6028 49.2C70.3495 49.3867 71.1095 49.6533 71.8828 50C72.6828 50.3733 73.6428 50.8667 74.7628 51.48C76.4961 52.4133 77.9761 53.12 79.2028 53.6C80.4295 54.1067 81.7095 54.36 83.0428 54.36C84.2428 54.36 85.3628 54.1467 86.4028 53.72C86.1895 55.6667 85.7095 57.2 84.9628 58.32C84.2428 59.44 83.3361 60 82.2428 60ZM80.8791 50.16C78.9057 50.16 77.3457 49.6533 76.1991 48.64C75.0524 47.6267 74.4791 46.0267 74.4791 43.84C74.4791 42.0267 74.8524 40.0133 75.5991 37.8C76.3457 35.5867 77.5457 33.68 79.1991 32.08C80.8524 30.4533 82.9324 29.64 85.4391 29.64C88.8524 29.64 90.5591 31.7733 90.5591 36.04V36.08C90.6391 36.1067 90.7857 36.12 90.9991 36.12C91.8791 36.12 92.8924 35.8933 94.0391 35.44C95.1857 34.96 96.2257 34.3867 97.1591 33.72L97.5191 34.8C96.7457 35.6267 95.7324 36.3333 94.4791 36.92C93.2524 37.48 91.9057 37.88 90.4391 38.12C90.2257 40.5467 89.6791 42.6667 88.7991 44.48C87.9191 46.2933 86.7857 47.6933 85.3991 48.68C84.0124 49.6667 82.5057 50.16 80.8791 50.16ZM82.4791 46.56C83.1191 46.56 83.7591 46.2 84.3991 45.48C85.0391 44.7333 85.5991 43.7333 86.0791 42.48C86.5591 41.2 86.9057 39.7867 87.1191 38.24C86.3991 38.08 86.0391 37.52 86.0391 36.56C86.0391 35.4667 86.4524 34.7467 87.2791 34.4C87.2257 33.52 87.0924 32.92 86.8791 32.6C86.6657 32.2533 86.2924 32.08 85.7591 32.08C84.8791 32.08 84.0257 32.72 83.1991 34C82.3724 35.28 81.7057 36.8133 81.1991 38.6C80.6924 40.3867 80.4391 41.96 80.4391 43.32C80.4391 44.6 80.5857 45.4667 80.8791 45.92C81.1724 46.3467 81.7057 46.56 82.4791 46.56ZM99.6972 60C98.4172 60 97.3505 59.6667 96.4972 59C95.6439 58.3333 95.2172 57.3733 95.2172 56.12C95.2172 54.6 95.8305 53.3733 97.0572 52.44C98.2839 51.5333 99.8439 50.7733 101.737 50.16L102.217 48.04C100.857 49.5067 99.2572 50.24 97.4172 50.24C95.8972 50.24 94.6305 49.72 93.6172 48.68C92.6039 47.64 92.0972 46.0133 92.0972 43.8C92.0972 41.8267 92.4839 39.76 93.2572 37.6C94.0572 35.4133 95.2305 33.5733 96.7772 32.08C98.3505 30.56 100.217 29.8 102.377 29.8C103.471 29.8 104.284 29.9867 104.817 30.36C105.351 30.7333 105.617 31.2267 105.617 31.84V32.08L106.057 30H111.817L107.857 48.56C109.137 48.1333 110.164 47.4933 110.937 46.64C111.711 45.7867 112.364 44.52 112.897 42.84H114.577C113.857 45.2133 112.884 46.96 111.657 48.08C110.431 49.1733 109.044 49.92 107.497 50.32L106.897 53.2C106.364 55.7867 105.444 57.56 104.137 58.52C102.831 59.5067 101.351 60 99.6972 60ZM100.017 46.36C100.631 46.36 101.257 46.08 101.897 45.52C102.537 44.96 102.977 44.2 103.217 43.24L105.257 33.76C105.257 33.44 105.124 33.12 104.857 32.8C104.591 32.4533 104.177 32.28 103.617 32.28C102.551 32.28 101.591 32.9067 100.737 34.16C99.8839 35.3867 99.2172 36.88 98.7372 38.64C98.2572 40.3733 98.0172 41.9067 98.0172 43.24C98.0172 44.5733 98.2039 45.4267 98.5772 45.8C98.9772 46.1733 99.4572 46.36 100.017 46.36ZM98.7772 56.88C99.2305 56.88 99.6705 56.5733 100.097 55.96C100.524 55.3467 100.857 54.4667 101.097 53.32L101.337 52.16C98.7239 53.12 97.4172 54.2533 97.4172 55.56C97.4172 55.9067 97.5372 56.2133 97.7772 56.48C98.0172 56.7467 98.3505 56.88 98.7772 56.88ZM118.731 50.16C116.757 50.16 115.197 49.6533 114.051 48.64C112.904 47.6267 112.331 46.0267 112.331 43.84C112.331 42 112.691 39.9867 113.411 37.8C114.131 35.5867 115.304 33.68 116.931 32.08C118.557 30.4533 120.637 29.64 123.171 29.64C126.317 29.64 128.011 31.44 128.251 35.04C128.837 34.9067 129.357 34.5867 129.811 34.08C130.264 33.5467 130.691 32.9467 131.091 32.28H132.371C131.651 33.72 131.011 34.8533 130.451 35.68C129.891 36.48 129.157 37.1333 128.251 37.64C128.091 40.1467 127.571 42.3467 126.691 44.24C125.837 46.1333 124.717 47.6 123.331 48.64C121.944 49.6533 120.411 50.16 118.731 50.16ZM120.331 46.56C121.317 46.56 122.237 45.76 123.091 44.16C123.944 42.56 124.531 40.5867 124.851 38.24C124.211 38 123.891 37.4 123.891 36.44C123.891 35.4 124.264 34.7067 125.011 34.36C124.957 33.5067 124.811 32.92 124.571 32.6C124.357 32.2533 123.997 32.08 123.491 32.08C122.611 32.08 121.771 32.72 120.971 34C120.171 35.2533 119.517 36.7867 119.011 38.6C118.531 40.3867 118.291 41.96 118.291 43.32C118.291 44.6 118.437 45.4667 118.731 45.92C119.024 46.3467 119.557 46.56 120.331 46.56Z" fill="#FF6B00"/>
</svg>
